<svg width="20" height="20" viewBox="0 0 20 20" fill="none" xmlns="http://www.w3.org/2000/svg">
<path d="M13.7367 9.98001L18.8625 5.52668V14.3825L13.7367 9.98001ZM7.13167 10.7342L8.93167 12.2967C9.21417 12.5367 9.5825 12.6817 9.985 12.6817H9.99917H10.01C10.4133 12.6817 10.7817 12.5358 11.0675 12.2942L11.065 12.2958L12.865 10.7333L18.3367 15.4325H1.6625L7.13167 10.7342ZM1.655 4.47084H18.3467L10.3292 11.4342C10.2394 11.5062 10.1276 11.545 10.0125 11.5442H10.0008H9.99C9.87454 11.545 9.76236 11.5058 9.6725 11.4333L9.67333 11.4342L1.655 4.47084ZM1.1375 5.52584L6.2625 9.97918L1.1375 14.3792V5.52584ZM19.1375 3.49168C18.9375 3.39168 18.7025 3.33334 18.4533 3.33334H1.54917C1.30774 3.3343 1.06973 3.39045 0.853333 3.49751L0.8625 3.49334C0.604055 3.62125 0.386414 3.81871 0.234045 4.06353C0.0816773 4.30835 0.000624467 4.59082 0 4.87918L0 15.0225C0.00044117 15.433 0.16371 15.8266 0.453984 16.1169C0.744257 16.4071 1.13783 16.5704 1.54833 16.5708H18.4508C18.8613 16.5704 19.2549 16.4071 19.5452 16.1169C19.8355 15.8266 19.9987 15.433 19.9992 15.0225V4.87918C19.9992 4.27334 19.65 3.74834 19.1417 3.49584L19.1325 3.49168H19.1375Z" fill="white"/>
</svg>
